<svg width="48" height="48" viewBox="0 0 48 48" xmlns="http://www.w3.org/2000/svg">
  <!-- Document background -->
  <path d="M6 3 L36 3 L42 9 L42 45 L6 45 Z" fill="#000000" stroke="#ffffff" stroke-width="1"/>
  <!-- Folded corner -->
  <path d="M36 3 L36 9 L42 9 Z" fill="#00bfff" stroke="#ffffff" stroke-width="0.5"/>
  <!-- Window controls (simplified to two dots) -->
  <circle cx="10" cy="8" r="1" fill="#00bfff"/>
  <circle cx="14" cy="8" r="1" fill="#00bfff"/>
  <!-- aLTE text (scaled down) -->
  <text x="9" y="21" font-family="Arial, sans-serif" font-size="8" font-weight="bold" fill="#ffffff">Alte</text>
  <!-- Document lines (simplified) -->
  <rect x="9" y="25" width="24" height="1.5" fill="#00bfff" rx="0.5"/>
  <rect x="9" y="28" width="24" height="1.5" fill="#00bfff" rx="0.5"/>
  <rect x="9" y="31" width="16" height="1.5" fill="#00bfff" rx="0.5"/>
  <rect x="9" y="34" width="18" height="1.5" fill="#00bfff" rx="0.5"/>
  <rect x="9" y="37" width="20" height="1.5" fill="#00bfff" rx="0.5"/>
  <!-- Mouse cursor (scaled down) -->
  <g transform="translate(32, 35) scale(0.3)">
    <!-- Cursor shadow -->
    <path d="M1 1 L1 16 L6 13.5 L9 17.5 L11 16.5 L8 12.5 L13 12.5 Z" fill="#000000" opacity="0.3"/>
    <!-- Cursor body -->
    <path d="M0 0 L0 15 L5 12.5 L8 16.5 L10 15.5 L7 11.5 L12 11.5 Z" fill="#00bfff" stroke="#ffffff" stroke-width="0.5"/>
  </g>
</svg>
